<svg width="144" height="48" viewBox="0 0 144 48" fill="none" xmlns="http://www.w3.org/2000/svg">
<g clip-path="url(#clip0_481_420)">
<path fill-rule="evenodd" clip-rule="evenodd" d="M11.208 35.49C12.324 35.49 13.368 35.2858 14.352 34.8895C14.352 34.9255 16.356 38.036 16.392 38.048C14.6183 38.999 12.632 39.4826 10.62 39.4532C4.464 39.4652 0 35.3939 0 28.9207C0 22.3995 4.68 18.3523 10.62 18.3523C12.72 18.3523 14.388 18.8086 16.056 19.6974L14.136 22.9399C13.142 22.5515 12.0831 22.3558 11.016 22.3635C7.38 22.3635 4.56 24.6813 4.56 28.9207C4.56 32.9319 7.284 35.49 11.208 35.49ZM26.724 18.3523C32.772 18.3523 37.152 22.6397 37.152 28.9207C37.152 35.1657 32.772 39.4532 26.712 39.4532C20.712 39.4532 16.332 35.1657 16.332 28.9207C16.332 22.6397 20.712 18.3523 26.724 18.3523V18.3523ZM26.724 22.2194C23.352 22.2194 20.892 24.8255 20.892 28.9207C20.892 32.98 23.352 35.5861 26.724 35.5861C30.18 35.5861 32.604 32.98 32.604 28.9207C32.604 24.8255 30.18 22.2194 26.724 22.2194V22.2194ZM40.02 38.9968V18.8086H44.532V38.9848H40.02V38.9968ZM39.42 12.5997C39.4668 11.8814 39.7849 11.2079 40.3097 10.7158C40.8345 10.2237 41.5268 9.94981 42.246 9.94981C42.9652 9.94981 43.6575 10.2237 44.1823 10.7158C44.7071 11.2079 45.0252 11.8814 45.072 12.5997C45.0722 13.3538 44.777 14.078 44.2498 14.6168C43.7226 15.1557 43.0054 15.4663 42.252 15.482C41.4986 15.4663 40.7814 15.1557 40.2542 14.6168C39.727 14.078 39.4318 13.3538 39.432 12.5997H39.42ZM48.468 20.0817C51.4235 18.9699 54.5508 18.3846 57.708 18.3523C62.868 18.3523 66.132 20.3098 66.132 26.0024V38.9968H61.68V26.4227C61.68 23.5044 59.868 22.4596 57.36 22.4596C55.764 22.4596 54.168 22.6757 52.98 23.048V38.9848H48.48V20.0817H48.468ZM69.912 8H74.424V19.3491C75.384 18.8447 77.244 18.3523 79.02 18.3523C84.852 18.3523 89.22 22.0753 89.22 28.5604C89.22 35.0817 84.9 39.4532 77.436 39.4532C74.52 39.4532 71.964 38.8527 69.912 38.1321V8V8ZM74.424 35.1657C75.288 35.4419 76.428 35.5861 77.568 35.5861C81.708 35.5861 84.672 33.3042 84.672 28.6565C84.672 24.7294 81.888 22.4115 78.48 22.4115C76.704 22.4115 75.336 22.8679 74.424 23.3723V35.1657V35.1657ZM102.264 25.462C102.264 23.2762 100.608 22.2674 98.376 22.2674C96.06 22.2674 94.236 22.952 92.556 23.9127V19.9856C94.5657 18.8925 96.8208 18.3304 99.108 18.3523C103.524 18.3523 106.668 20.1777 106.668 25.2338V38.5885C104.748 39.0929 102.024 39.4051 99.744 39.4051C94.512 39.4051 90.684 37.8199 90.684 33.2562C90.684 29.1489 94.188 27.1433 100.02 27.1433H102.252V25.462H102.264ZM102.264 30.1457H100.344C97.2 30.1457 95.148 31.0705 95.148 33.1241C95.148 35.2138 97.068 36.0304 99.792 36.0304C100.476 36.0304 101.436 35.9464 102.252 35.8142V30.1577L102.264 30.1457ZM109.944 33.5324C111.702 34.9268 113.858 35.7258 116.1 35.8142C118.104 35.8142 119.424 35.1297 119.424 33.5324C119.424 31.8871 118.236 31.2986 115.644 30.6141C111.444 29.6533 109.68 27.972 109.68 24.4532C109.68 20.3579 112.776 18.3523 116.88 18.3523C119.16 18.3523 120.972 18.8447 122.664 19.9015V24.0448C121.056 22.7603 119.069 22.0427 117.012 22.0032C115.056 22.0032 114.012 22.964 114.012 24.285C114.012 25.6061 114.864 26.2786 117.192 26.9271C121.8 27.9239 123.792 29.6533 123.792 33.2922C123.792 37.5436 120.564 39.4532 116.196 39.4532C114.005 39.4969 111.845 38.9315 109.956 37.8198V33.5324H109.944ZM129.972 29.9295V30.0136C130.248 33.6165 133.332 35.5861 136.488 35.5861C139.26 35.5861 141.264 34.9375 143.268 33.6165V37.5797C141.444 38.8647 138.756 39.4532 136.164 39.4532C129.876 39.4532 125.604 35.4419 125.604 29.0648C125.604 22.6397 129.792 18.3523 135.348 18.3523C141.228 18.3523 144 22.1353 144 27.6477V29.9295H129.96H129.972ZM139.764 27.0112C139.668 23.8647 138.12 22.1353 135.204 22.1353C132.612 22.1353 130.704 23.9608 130.104 27.0112H139.764Z" fill="#0667D0"/>
</g>
<defs>
<clipPath id="clip0_481_420">
<rect width="144" height="48" fill="white"/>
</clipPath>
</defs>
</svg>
