<svg width="216" height="39" viewBox="0 0 216 39" fill="none" xmlns="http://www.w3.org/2000/svg">
<mask id="mask0_1171_705" style="mask-type:luminance" maskUnits="userSpaceOnUse" x="0" y="0" width="216" height="37">
<path d="M216 0H0V36.8999H216V0Z" fill="white"/>
</mask>
<g mask="url(#mask0_1171_705)">
<path d="M55.3647 10.041C54.4097 10.041 53.5115 10.411 52.8394 11.0831L50.123 13.7921C49.3904 14.5229 49.0138 15.5377 49.091 16.5779C49.0964 16.6348 49.1019 16.6915 49.1075 16.7501C49.2049 17.5487 49.5557 18.2686 50.123 18.8326C50.5144 19.2228 50.9459 19.4701 51.4694 19.6423C51.4968 19.7998 51.5115 19.9591 51.5115 20.1184C51.5115 20.8365 51.2324 21.5105 50.7254 22.016L50.5584 22.1828C49.6512 21.8731 48.8944 21.4208 48.2113 20.7394C47.3041 19.8346 46.7034 18.6917 46.4775 17.437L46.4463 17.2629L46.3086 17.3747C46.2149 17.4499 46.1267 17.5304 46.0441 17.6128L43.3278 20.3219C41.9357 21.7101 41.9357 23.9723 43.3278 25.3605C44.0239 26.0548 44.9384 26.4027 45.855 26.4027C46.7714 26.4027 47.6841 26.0548 48.3803 25.3605L51.0965 22.6517C52.4887 21.2632 52.4887 19.003 51.0965 17.6128C50.7254 17.2429 50.283 16.9645 49.7816 16.785C49.7541 16.6219 49.7393 16.459 49.7393 16.2997C49.7393 15.5193 50.0479 14.7793 50.6135 14.2152C51.5226 14.5247 52.3288 15.0266 53.0103 15.7062C53.9156 16.6091 54.5143 17.7502 54.7438 19.0086L54.7751 19.1825L54.9128 19.0708C55.0065 18.9957 55.0947 18.9152 55.1792 18.8308L57.8955 16.1219C59.2876 14.7335 59.2894 12.4716 57.8955 11.0831C57.2215 10.411 56.3252 10.041 55.3683 10.041H55.3647Z" fill="#1C3C3C"/>
<path d="M53.9069 0.134766H18.3657C8.23883 0.134766 0 8.35135 0 18.4508C0 28.5502 8.23883 36.767 18.3657 36.767H53.9069C64.0337 36.767 72.2727 28.5502 72.2727 18.4508C72.2727 8.35135 64.0337 0.134766 53.9069 0.134766ZM36.3769 28.8507C35.791 28.9716 35.1316 28.9935 34.6836 28.5266C34.5182 28.9057 34.1326 28.706 33.8351 28.6567C33.8075 28.7335 33.7837 28.8012 33.7579 28.8782C32.768 28.9441 32.0261 27.9367 31.5541 27.1766C30.6174 26.671 29.554 26.3634 28.5971 25.834C28.542 26.706 28.7331 27.7866 27.901 28.3489C27.8589 30.0248 30.443 28.5468 30.6798 29.7959C30.4962 29.8159 30.2924 29.7665 30.1453 29.9075C29.4715 30.5614 28.6981 29.4131 27.9213 29.8874C26.8782 30.4112 26.7735 30.8398 25.4823 30.9478C25.4108 30.8398 25.4402 30.7684 25.5007 30.7025C25.8644 30.2813 25.8901 29.7848 26.5108 29.6053C25.8717 29.5046 25.3373 29.8563 24.7992 30.1347C24.0994 30.4204 24.105 29.4898 23.0288 30.1841C22.9093 30.087 22.9664 29.9992 23.0342 29.9241C23.3078 29.5907 23.6679 29.5411 24.0737 29.5596C22.0774 28.4496 21.137 30.9167 20.2151 29.6896C19.9378 29.7629 19.8331 30.0119 19.6585 30.1877C19.508 30.023 19.6219 29.8232 19.6293 29.6291C19.4492 29.545 19.2215 29.5046 19.2748 29.217C18.9221 29.098 18.6761 29.3067 18.4135 29.5046C18.1766 29.3215 18.5731 29.054 18.6467 28.8634C18.8579 28.4972 19.339 28.7885 19.5833 28.5247C20.2775 28.131 21.2453 28.7701 22.0388 28.6621C22.6505 28.7389 23.4071 28.1125 23.1002 27.488C22.4465 26.6547 22.5622 25.5648 22.5475 24.5684C22.4667 23.9877 21.0691 23.2478 20.665 22.6214C20.1655 22.0572 19.7762 21.4033 19.3868 20.7606C17.9818 18.0479 18.4245 14.5623 16.6539 12.0439C15.8532 12.4853 14.81 12.2765 14.1196 11.6849C13.7467 12.0237 13.7301 12.467 13.7008 12.9377C12.8064 12.0458 12.9184 10.3606 13.6328 9.3679C13.9249 8.97594 14.2738 8.65358 14.6632 8.36967C14.7513 8.30558 14.7807 8.24329 14.7788 8.14439C15.4859 4.97205 20.3088 5.58381 21.8332 7.83119C22.9387 9.21408 23.273 11.0438 24.5273 12.3278C26.2151 14.1704 28.1381 15.7932 29.6954 17.7549C31.1683 19.548 32.2207 21.6506 33.139 23.7698C33.5137 24.4731 33.5173 25.3358 34.0721 25.9366C34.3456 26.2994 35.6827 27.2865 35.3926 27.6364C35.5596 27.999 36.8085 28.4989 36.375 28.8507H36.3769ZM59.8004 18.0296L57.0842 20.7385C56.3606 21.4602 55.4663 21.9986 54.4965 22.2935L54.4469 22.3082L54.4285 22.3558C54.1126 23.1874 53.6333 23.9291 53.0015 24.5574L50.2851 27.2663C49.1006 28.4478 47.5249 29.098 45.8462 29.098C44.1676 29.098 42.5917 28.4478 41.4072 27.2663C38.9591 24.8249 38.9591 20.8538 41.4072 18.4124L44.1236 15.7035C44.8508 14.9781 45.7213 14.4561 46.7076 14.1539L46.7572 14.1392L46.7756 14.0916C47.0915 13.26 47.5726 12.5165 48.2063 11.8827L50.9225 9.17377C52.107 7.99236 53.6828 7.34214 55.3614 7.34214C57.04 7.34214 58.6159 7.99236 59.8004 9.17377C60.9851 10.3551 61.637 11.9267 61.637 13.6008C61.637 15.2749 60.9851 16.8481 59.8004 18.0277V18.0296Z" fill="#1C3C3C"/>
<path d="M25.3302 25.5721C25.0914 26.499 25.0143 28.076 23.8059 28.1219C23.7067 28.6566 24.1769 28.858 24.6066 28.6859C25.0309 28.4918 25.2329 28.8398 25.3761 29.186C26.0318 29.2811 27.0015 28.9679 27.0382 28.1933C26.0592 27.6309 25.7562 26.5613 25.332 25.5704L25.3302 25.5721ZM89.2902 9.73545H86.0639V29.3069H99.9022V26.1893H89.2902V9.73545ZM116.121 29.3069H119.348V29.2721H119.39L119.396 29.1285C119.397 29.0864 119.409 28.6948 119.349 28.0912V20.8073C119.349 18.0668 121.347 16.8192 123.204 16.8192C125.201 16.8192 126.173 17.8957 126.173 20.111V29.3069H129.4V19.6815C129.4 16.0257 127.077 13.7539 123.339 13.7539C121.751 13.7539 120.333 14.2051 119.22 15.0625L119.19 14.0223H116.126V29.3069H116.121ZM142.531 15.1452C141.409 14.2341 139.967 13.7539 138.341 13.7539C133.991 13.7539 131.288 16.7539 131.288 21.5834C131.288 26.4128 133.991 29.4404 138.341 29.4404C139.876 29.4404 141.246 29.0226 142.325 28.2275C142.232 30.5967 140.748 32.0038 138.315 32.0038C136.269 32.0038 135.112 31.3525 134.874 30.0686L134.845 29.909L131.71 30.8651L131.738 30.994C132.267 33.5459 134.655 35.0691 138.128 35.0691C140.484 35.0691 142.332 34.428 143.622 33.1615C144.923 31.8847 145.582 30.0452 145.582 27.6953V14.0223H142.597L142.532 15.1452H142.531ZM142.329 21.7183C142.329 24.6343 140.909 26.3766 138.528 26.3766C135.977 26.3766 134.514 24.6298 134.514 21.5849C134.514 18.5397 135.978 16.8192 138.528 16.8192C140.851 16.8192 142.306 18.5528 142.329 21.3425V21.7183ZM161.479 23.1007C160.81 25.2637 159.092 26.4561 156.644 26.4561C153.144 26.4561 150.968 23.7985 150.968 19.5205C150.968 15.2423 153.163 12.5846 156.698 12.5846C159.144 12.5846 160.555 13.5435 161.271 15.692L161.606 16.6972L164.652 15.2669L164.366 14.4618C163.207 11.1934 160.528 9.46697 156.618 9.46697C153.963 9.46697 151.708 10.4259 150.098 12.2393C148.505 14.0353 147.662 16.5522 147.662 19.5219C147.662 25.6293 151.187 29.5767 156.644 29.5767C160.49 29.5767 163.469 27.5646 164.613 24.1931L164.903 23.3314L161.774 22.1417L161.476 23.1021L161.479 23.1007ZM173.527 13.7539C171.987 13.7539 170.616 14.1761 169.539 14.9784V7.85977H166.314V29.3084H169.539V20.8088C169.539 18.051 171.537 16.7947 173.394 16.7947C175.392 16.7947 176.364 17.8711 176.364 20.0862V29.3099H179.59V19.6569C179.59 16.0721 177.212 13.7569 173.529 13.7569L173.527 13.7539ZM198.448 7.39844C197.249 7.39844 196.379 8.26887 196.379 9.46715C196.379 10.6654 197.249 11.5359 198.448 11.5359C199.646 11.5359 200.516 10.6654 200.516 9.46715C200.516 8.26887 199.646 7.39844 198.448 7.39844ZM209.938 13.7539C208.349 13.7539 206.933 14.2051 205.819 15.0625L205.789 14.0223H202.725V29.3069H205.951V20.8073C205.951 18.0668 207.949 16.8192 209.806 16.8192C211.804 16.8192 212.776 17.8957 212.776 20.111V29.3069H216.002V19.6815C216.002 16.0257 213.68 13.7539 209.941 13.7539H209.938ZM200.016 14.0223H196.805V21.5995C195.914 20.8508 194.865 20.285 193.68 19.9151V19.1447C193.68 15.769 191.465 13.7539 187.752 13.7539C184.736 13.7539 182.48 15.1699 181.562 17.6375L181.314 18.3034L183.902 20.2096L184.345 19.0534C184.929 17.5287 186.014 16.8179 187.752 16.8179C189.492 16.8179 190.453 17.6549 190.453 19.3043V19.3901C190.35 19.3856 190.247 19.3828 190.142 19.3813C186.687 19.3261 184.167 20.1342 182.652 21.7793C181.102 23.462 181.237 25.3523 181.257 25.5612L181.272 25.7063H181.286C181.527 28.0607 183.584 29.5724 186.573 29.5724C188.219 29.5724 189.74 29.114 190.89 28.277L190.903 29.3054H193.68V24.524L193.62 24.4805C193.228 24.1932 192.543 23.8219 191.513 23.6913C191.189 23.6507 190.88 23.6303 190.596 23.6362H190.452V24.0758C190.452 25.0869 189.291 26.51 186.705 26.51C184.797 26.51 184.513 25.7078 184.513 25.2291V25.1797C184.527 24.9651 184.618 24.4399 185.091 23.951C185.693 23.3286 187.05 22.6004 190.088 22.6469C192.289 22.6815 193.977 23.2967 195.108 24.4761C196.495 25.9239 196.755 27.9056 196.803 28.6817V29.3069H200.014L200.016 14.0223ZM107.779 13.6872C104.763 13.6872 102.508 15.1031 101.589 17.5708L101.341 18.2367L103.928 20.1429L104.372 18.9867C104.957 17.462 106.04 16.7511 107.779 16.7511C109.519 16.7511 110.481 17.5882 110.481 19.2376V19.625L107.158 20.211C103.263 20.9002 101.287 22.5656 101.287 25.1593C101.287 27.7532 103.372 29.5057 106.598 29.5057C108.245 29.5057 109.765 29.0473 110.915 28.2102L110.929 29.2387H113.706V19.0781C113.706 15.7023 111.491 13.6872 107.779 13.6872ZM110.481 22.6483V24.0104C110.481 25.0216 109.318 26.4447 106.733 26.4447C104.825 26.4447 104.542 25.6425 104.542 25.1638C104.542 24.7388 104.542 23.7434 107.921 23.1169L110.481 22.6483Z" fill="#1C3C3C"/>
</g>
</svg>
